# xmcd
#
# Track frame offsets:
# 150
# 19060
# 33795
# 45852
# 70055
# 88655
# 107135
# 126130
# 143805
# 154545
# 167562
#
# Disc length: 2533 seconds
#
#
# Revision: 1
# Processed by: cddbd v1.5PL3 Copyright (c) Steve Scherf et al.
# Submitted via: FreeRIP 2.40 
#
DISCID=7e09e30b
DTITLE=Garth Brooks - Fresh Horses
DYEAR=2000
DGENRE=Country
TTITLE0=The Old Stuff
TTITLE1=Cowboys And Angels
TTITLE2=The Fever
TTITLE3=That Old Wind
TTITLE4=Rollin'
TTITLE5=The Change
TTITLE6=The Beaches Of Cheyenne
TTITLE7=To Make You Feel My Love
TTITLE8=It's Midnight Cinderella
TTITLE9=She's Every Woman
TTITLE10=Ireland
EXTD=
EXTT0=
EXTT1=
EXTT2=
EXTT3=
EXTT4=
EXTT5=
EXTT6=
EXTT7=
EXTT8=
EXTT9=
EXTT10=
PLAYORDER=
